<?xml version="1.0" encoding="utf-8"?>
<!-- Generator: Adobe Illustrator 17.0.1, SVG Export Plug-In . SVG Version: 6.00 Build 0)  -->
<!DOCTYPE svg PUBLIC "-//W3C//DTD SVG 1.1//EN" "http://www.w3.org/Graphics/SVG/1.1/DTD/svg11.dtd">
<svg version="1.1" id="Layer_1" xmlns="http://www.w3.org/2000/svg" xmlns:xlink="http://www.w3.org/1999/xlink" x="0px" y="0px"
	 width="44.7px" height="60.963px" viewBox="0 0 44.7 60.963" enable-background="new 0 0 44.7 60.963" xml:space="preserve">
<g>
	<g>
		<path fill="#333333" d="M7.301,0.245c0.321-0.321,0.637-0.326,0.947-0.016C8.56,0.54,8.326,2.006,7.549,4.626
			C6.772,7.247,6.321,8.909,6.197,9.613c-0.436,2.259-0.787,4.6-1.057,7.023C4.27,24.632,4.934,29.791,7.13,32.111
			c0.165-0.166,0.306-0.409,0.419-0.73c0.114-0.32,0.342-0.88,0.684-1.678s1.253-1.938,2.734-3.419
			c1.481-1.48,3.455-2.697,5.921-3.65c2.465-0.952,4.961-1.409,7.488-1.367c5.428,0.124,10.15,2.195,14.17,6.215
			c4.019,4.019,6.07,8.773,6.151,14.262c0.084,5.491-1.88,10.239-5.888,14.248c-4.009,4.009-8.887,5.594-14.636,4.755
			s-10.809-3.444-15.18-7.815c-5.448-5.448-8.421-11.963-8.919-19.546c-0.435-6.566,1.016-15.557,4.351-26.972
			c0.373-1.284,0.865-2.553,1.476-3.807C6.514,1.353,6.979,0.566,7.301,0.245z M15.986,49.543c3.252,3.253,6.712,5.49,10.379,6.712
			c4.453,1.471,8.125,0.762,11.015-2.129c2.891-2.89,3.755-6.385,2.596-10.487c-0.954-3.439-2.994-6.723-6.122-9.851
			c-6.111-6.11-11.829-8.556-17.153-7.333c-1.947,0.456-3.729,1.491-5.345,3.107c-2.858,2.858-3.729,6.049-2.61,9.57
			c0.953,2.983,3.253,6.34,6.899,10.068L15.986,49.543z"/>
	</g>
	<path fill="#F9ED32" d="M15.948,49.505c3.253,3.252,6.712,5.49,10.379,6.712c4.454,1.471,8.126,0.761,11.016-2.128
		c2.89-2.89,3.754-6.386,2.595-10.488c-0.953-3.439-2.993-6.723-6.121-9.85c-6.111-6.111-11.829-8.556-17.153-7.333
		c-1.947,0.455-3.728,1.492-5.345,3.107c-2.858,2.859-3.729,6.049-2.61,9.57c0.953,2.984,3.253,6.34,6.898,10.068L15.948,49.505z"/>
</g>
<g>
</g>
<g>
</g>
<g>
</g>
<g>
</g>
<g>
</g>
<g>
</g>
</svg>
