<svg id="e862c548-909b-4aa0-beda-ea8c75bd7f14" data-name="Layer 1" xmlns="http://www.w3.org/2000/svg" viewBox="0 0 379.53 100.06"><defs><style>.\34 52128b1-6dc3-4c15-8e2e-3a0a9ce05a85{font-size:82px;font-family:Cardo;}.\34 52128b1-6dc3-4c15-8e2e-3a0a9ce05a85,.cf6dda20-fdce-4a9e-a3d4-1fd921e79561{fill:#fff;}.\35 56ebbbe-9d38-4fb6-8055-3680fc92fe2b{fill:#f9ed32;}</style></defs><title>brightdigit-name</title><text class="452128b1-6dc3-4c15-8e2e-3a0a9ce05a85" transform="translate(45.12 70.23)">right</text><text class="452128b1-6dc3-4c15-8e2e-3a0a9ce05a85" transform="translate(261.54 69.23)">igit</text><path class="cf6dda20-fdce-4a9e-a3d4-1fd921e79561" d="M7.37,11.94a0.6,0.6,0,0,1,1,0q0.47,0.47-.71,4.44t-1.36,5Q5.6,24.82,5.19,28.49q-1.32,12.11,2,15.62a2,2,0,0,0,.42-0.74q0.17-.48.69-1.69a13.39,13.39,0,0,1,2.76-3.45,17,17,0,0,1,6-3.69,19.89,19.89,0,0,1,7.56-1.38,20.27,20.27,0,0,1,14.3,6.27,20.13,20.13,0,0,1,6.21,14.4,19.22,19.22,0,0,1-5.94,14.38A16.45,16.45,0,0,1,24.4,73,26.72,26.72,0,0,1,9.08,65.12a29.83,29.83,0,0,1-9-19.73q-0.66-9.94,4.39-27.22A24.06,24.06,0,0,1,6,14.33,10.54,10.54,0,0,1,7.37,11.94ZM16.13,61.7a26.93,26.93,0,0,0,10.48,6.77q6.74,2.23,11.12-2.15a10.1,10.1,0,0,0,2.62-10.58,22.8,22.8,0,0,0-6.18-9.94q-9.25-9.25-17.31-7.4a11.2,11.2,0,0,0-5.39,3.14Q7.13,45.86,8.83,51.2q1.44,4.52,7,10.16Z" transform="translate(0)"/><path class="556ebbbe-9d38-4fb6-8055-3680fc92fe2b" d="M16.13,61.7a27,27,0,0,0,10.48,6.77q6.74,2.23,11.12-2.15a10.1,10.1,0,0,0,2.62-10.58,22.8,22.8,0,0,0-6.18-9.94q-9.25-9.25-17.31-7.4a11.21,11.21,0,0,0-5.39,3.14Q7.13,45.86,8.83,51.2q1.44,4.52,7,10.16Z" transform="translate(0)"/><path class="556ebbbe-9d38-4fb6-8055-3680fc92fe2b" d="M245.75,61.36q5.52-5.65,7-10.16,1.69-5.33-2.63-9.66a11.21,11.21,0,0,0-5.4-3.14q-8.06-1.85-17.31,7.4a22.81,22.81,0,0,0-6.18,9.94,10.1,10.1,0,0,0,2.62,10.59q4.38,4.38,11.12,2.15A26.94,26.94,0,0,0,245.4,61.7Z" transform="translate(0)"/><path class="cf6dda20-fdce-4a9e-a3d4-1fd921e79561" d="M255.58,14.33a24.08,24.08,0,0,1,1.49,3.84q5,17.28,4.39,27.22a29.83,29.83,0,0,1-9,19.73A26.71,26.71,0,0,1,237.14,73a16.45,16.45,0,0,1-14.77-4.8,19.21,19.21,0,0,1-5.94-14.38,20.13,20.13,0,0,1,6.21-14.4,20.27,20.27,0,0,1,14.3-6.27,19.91,19.91,0,0,1,7.56,1.38,17,17,0,0,1,6,3.69,13.4,13.4,0,0,1,2.76,3.45q0.52,1.21.69,1.69a1.94,1.94,0,0,0,.42.74q3.32-3.51,2-15.62-0.41-3.67-1.07-7.09-0.19-1.07-1.36-5t-0.71-4.44a0.6,0.6,0,0,1,1,0A10.51,10.51,0,0,1,255.58,14.33Zm-9.83,47q5.52-5.64,7-10.16,1.69-5.33-2.63-9.66a11.2,11.2,0,0,0-5.39-3.14q-8.06-1.85-17.31,7.4a22.8,22.8,0,0,0-6.18,9.94,10.1,10.1,0,0,0,2.62,10.58q4.38,4.38,11.12,2.15A27,27,0,0,0,245.4,61.7Z" transform="translate(0)"/></svg>