<?xml version="1.0" encoding="utf-8"?>
<!-- Generator: Adobe Illustrator 19.2.1, SVG Export Plug-In . SVG Version: 6.00 Build 0)  -->
<svg version="1.1" xmlns="http://www.w3.org/2000/svg" xmlns:xlink="http://www.w3.org/1999/xlink" x="0px" y="0px"
	 viewBox="0 0 606.5 641.9" style="enable-background:new 0 0 606.5 641.9;" xml:space="preserve">
<style type="text/css">
	.st0{display:none;}
	.st1{display:inline;stroke:#000000;stroke-miterlimit:10;}
	.st2{fill:none;stroke:#FFFFFF;stroke-width:30;stroke-miterlimit:10;}
	.st3{opacity:0.5;fill:#FFFFFF;enable-background:new    ;}
	.st4{opacity:0.2;fill:#FFFFFF;stroke:#FFFFFF;stroke-width:30;stroke-miterlimit:10;enable-background:new    ;}
</style>
<g id="Layer_2" class="st0">
	<rect x="-80" y="-54" class="st1" width="831" height="843"/>
</g>
<g id="_x35_40a2e9f-cc96-4a8b-997b-961003f3f995">
	<title>logo</title>
	<g id="d43e1c40-6c76-459a-9cfa-f49fbf4ab043">
		<path class="st2" d="M581.1,398.8l-136.8,79.8c-3.2,1.9-6.9,2.9-10.6,2.9c-1.8,0-3.6-0.2-5.4-0.7c-5.4-1.4-10-4.9-12.8-9.8
			l-39.8-68.6c-9.5,12.8-20.4,24.5-32.6,34.7v168.8c0,11.6-9.4,21-21,21l0,0H107.5c-11.6,0-21-9.4-21-21l0,0V437.1
			c-84.5-70.7-95.7-196.5-25-281c7.6-9.1,16-17.5,25-25V36c0-11.6,9.4-21,21-21l0,0h214.6c11.6,0,21,9.4,21,21l0,0v76.9l31.6,46.7
			l80.6,1.1c7.4,0.1,14.2,4.1,17.9,10.5l115.5,198.9C594.5,380.1,591.1,392.9,581.1,398.8z"/>
		<path class="st3" d="M128.5,584.8H301V464.3c-54.5,26.1-118,26.1-172.5,0L128.5,584.8L128.5,584.8L128.5,584.8z"/>
		<path class="st3" d="M254.4,57H128.5v46.9c47.6-22.8,102.2-25.8,152-8.5L254.4,57z"/>
		<path class="st4" d="M299.7,251.5l36.9-67.4c-29.9-36.6-74.7-57.8-121.9-57.8c-87,0-157.8,70.8-157.8,157.8
			s70.8,157.7,157.8,157.7c56.9,0,109.3-30.7,137.3-80.2l-52-89.5C296.3,265.8,296.2,257.9,299.7,251.5z"/>
		<path class="st2" d="M299.7,251.5l36.9-67.4c-29.9-36.6-74.7-57.8-121.9-57.8c-87,0-157.8,70.8-157.8,157.8
			s70.8,157.7,157.8,157.7c56.9,0,109.3-30.7,137.3-80.2l-52-89.5C296.3,265.8,296.2,257.9,299.7,251.5z"/>
		<polyline class="st2" points="133.3,373.5 217,289.9 217,194.6 		"/>
	</g>
</g>
</svg>
