<?xml version="1.0" encoding="utf-8"?>
<!-- Generator: Adobe Illustrator 18.1.1, SVG Export Plug-In . SVG Version: 6.00 Build 0)  -->
<!DOCTYPE svg PUBLIC "-//W3C//DTD SVG 1.1//EN" "http://www.w3.org/Graphics/SVG/1.1/DTD/svg11.dtd">
<svg version="1.1" xmlns="http://www.w3.org/2000/svg" xmlns:xlink="http://www.w3.org/1999/xlink" x="0px" y="0px"
	 viewBox="0 0 360 360" enable-background="new 0 0 360 360" xml:space="preserve">
<g id="Layer_2" display="none">
	<rect x="-39.7" y="-34.7" display="inline" fill="#545454" width="443.7" height="450.7"/>
</g>
<g id="Layer_1">
	<path fill="#FFFFFF" stroke="#000000" stroke-width="10" stroke-miterlimit="10" d="M319.8,175.1c0,75.3-61.1,136.4-136.4,136.4
		c-24.1,0-46.8-6.3-66.4-17.2c-10.3-5.7-26.2,26.7-81.4,26.7c0,0,37.4-64.9,31.2-75c-12.6-20.7-19.9-44.9-19.9-70.9
		c0-75.3,61.1-136.4,136.4-136.4S319.8,99.8,319.8,175.1z"/>
	<line fill="none" stroke="#000000" stroke-width="9" stroke-miterlimit="10" x1="178" y1="183.5" x2="95" y2="183.5"/>
	<line fill="none" stroke="#000000" stroke-width="7" stroke-miterlimit="10" x1="178" y1="179.5" x2="254.4" y2="103.1"/>
	<line fill="none" stroke="#000000" stroke-width="8" stroke-miterlimit="10" x1="157.8" y1="141.3" x2="216.2" y2="260.3"/>
	<line fill="none" stroke="#000000" stroke-width="8" stroke-miterlimit="10" x1="216.2" y1="260.3" x2="195" y2="249"/>
	<line fill="none" stroke="#000000" stroke-width="8" stroke-miterlimit="10" x1="216" y1="260" x2="216" y2="240"/>
	<line fill="none" stroke="#000000" stroke-width="8" stroke-miterlimit="10" x1="95" y1="183.5" x2="105" y2="193"/>
	<line fill="none" stroke="#000000" stroke-width="8" stroke-miterlimit="10" x1="95" y1="183.5" x2="105" y2="170"/>
	<line fill="none" stroke="#000000" stroke-width="8" stroke-miterlimit="10" x1="254.4" y1="103.1" x2="227" y2="108"/>
	<line fill="none" stroke="#000000" stroke-width="8" stroke-miterlimit="10" x1="254" y1="103" x2="254" y2="120"/>
</g>
</svg>
