<?xml version="1.0" encoding="utf-8"?>
<!-- Generator: Adobe Illustrator 19.2.1, SVG Export Plug-In . SVG Version: 6.00 Build 0)  -->
<svg version="1.1" id="eba419d5-b531-4952-b1b9-169915f96516"
	 xmlns="http://www.w3.org/2000/svg" xmlns:xlink="http://www.w3.org/1999/xlink" x="0px" y="0px" viewBox="0 0 512 480"
	 style="enable-background:new 0 0 512 480;" xml:space="preserve">
<title>computer</title>
<path d="M0,128v320c0,17.7,14.3,32,32,32h448c17.7,0,32-14.3,32-32V128H0z M240.7,186.4c0-10.8,11.1-10.8,15.3-10.8
	s15.3,0,15.3,10.8v80.5c0,10.8-11.1,10.8-15.3,10.8s-15.3,0-15.3-10.8V186.4z M256,422.3c-62.1-0.1-112.4-50.4-112.5-112.5
	c0-39.7,22.3-77.1,58.1-97.7c1.3-0.8,2.8-1.4,4.3-1.5c0.9,0,4,0.4,4,5.4v19.6c0,4.8-3.6,8-4.7,8.9c-20.6,16.5-32.8,40.9-32.8,65.3
	c-0.5,46.2,36.5,84.1,82.7,84.6s84.1-36.5,84.6-82.7c0-0.6,0-1.2,0-1.8c0-24.8-12.6-49.5-33.6-65.9l-0.3-0.2
	c-2.2-1.4-3.6-3.9-3.6-6.6v-22c0-4.5,2.8-4.8,3.7-4.8c0.9,0,1.8,0.3,2.6,0.7c17.6,9.6,32.5,23.6,43.2,40.6
	c11,17.4,16.9,37.6,17,58.2C368.4,371.9,318.1,422.2,256,422.3z"/>
<path d="M512,96V32c0-17.7-14.3-32-32-32H32C14.3,0,0,14.3,0,32v64H512z M176,32c8.8,0,16,7.2,16,16s-7.2,16-16,16s-16-7.2-16-16
	S167.2,32,176,32z M112,32c8.8,0,16,7.2,16,16s-7.2,16-16,16s-16-7.2-16-16S103.2,32,112,32z M48,32c8.8,0,16,7.2,16,16
	s-7.2,16-16,16s-16-7.2-16-16S39.2,32,48,32z"/>
</svg>
