<svg id="77e940e7-0151-49e7-a493-0bc4b33f03fa" data-name="eba419d5-b531-4952-b1b9-169915f96516" xmlns="http://www.w3.org/2000/svg" viewBox="0 0 192 180"><defs><style>.\33 67ea3bf-e970-4391-a39b-d286d4232ebe{fill:#fff;}</style></defs><title>logo</title><path class="367ea3bf-e970-4391-a39b-d286d4232ebe" d="M149.37,48V168a12,12,0,0,0,12,12h168a12,12,0,0,0,12-12V48h-192Zm90.26,21.9c0-4.05,4.16-4.05,5.74-4.05s5.74,0,5.74,4.05v30.19c0,4-4.16,4-5.74,4s-5.74,0-5.74-4V69.9h0Zm5.74,88.46a42.25,42.25,0,0,1-42.19-42.19c0-14.89,8.36-28.91,21.79-36.64a3.62,3.62,0,0,1,1.61-.56c0.34,0,1.5.15,1.5,2v7.35a4.53,4.53,0,0,1-1.76,3.34C218.59,97.88,214,107,214,116.17a31.37,31.37,0,0,0,62.74.71v-0.67c0-9.3-4.73-18.56-12.6-24.71L264,91.43A3,3,0,0,1,262.69,89V80.7c0-1.69,1-1.8,1.39-1.8a2.23,2.23,0,0,1,1,.26,44.13,44.13,0,0,1,16.2,15.22,41.25,41.25,0,0,1,6.38,21.83A42.36,42.36,0,0,1,245.37,158.36Z" transform="translate(-149.37)"/><path class="367ea3bf-e970-4391-a39b-d286d4232ebe" d="M341.37,36V12a12,12,0,0,0-12-12h-168a12,12,0,0,0-12,12V36h192Zm-126-24a6,6,0,1,1-6,6A6,6,0,0,1,215.37,12Zm-24,0a6,6,0,1,1-6,6A6,6,0,0,1,191.37,12Zm-24,0a6,6,0,1,1-6,6A6,6,0,0,1,167.37,12Z" transform="translate(-149.37)"/></svg>