<svg id="eba419d5-b531-4952-b1b9-169915f96516" data-name="Capa 1" xmlns="http://www.w3.org/2000/svg" viewBox="0 0 512 480"><title>computer</title><path d="M0,144V464a32,32,0,0,0,32,32H480a32,32,0,0,0,32-32V144H0Zm240.72,58.45c0-10.81,11.1-10.81,15.28-10.81s15.28,0,15.28,10.81v80.49c0,10.81-11.1,10.81-15.28,10.81s-15.28,0-15.28-10.81V202.45ZM256,438.3A112.65,112.65,0,0,1,143.48,325.78c0-39.68,22.26-77.11,58.1-97.67a9,9,0,0,1,4.28-1.47c0.95,0,4,.39,4,5.35v19.56c0,4.77-3.6,8-4.71,8.91-20.56,16.47-32.84,40.89-32.84,65.31a83.65,83.65,0,1,0,167.29,0c0-24.83-12.58-49.49-33.64-65.94l-0.26-.2a7.87,7.87,0,0,1-3.65-6.56v-22c0-4.49,2.82-4.84,3.68-4.84a5.61,5.61,0,0,1,2.6.74,117.69,117.69,0,0,1,43.17,40.57,109.48,109.48,0,0,1,17,58.23A112.65,112.65,0,0,1,256,438.3Z" transform="translate(0 -16)"/><path d="M512,112V48a32,32,0,0,0-32-32H32A32,32,0,0,0,0,48v64H512ZM176,48a16,16,0,1,1-16,16A16,16,0,0,1,176,48Zm-64,0A16,16,0,1,1,96,64,16,16,0,0,1,112,48ZM48,48A16,16,0,1,1,32,64,16,16,0,0,1,48,48Z" transform="translate(0 -16)"/></svg>