<?xml version="1.0" standalone="no"?>
<!DOCTYPE svg PUBLIC "-//W3C//DTD SVG 20010904//EN"
 "http://www.w3.org/TR/2001/REC-SVG-20010904/DTD/svg10.dtd">
<svg version="1.0" xmlns="http://www.w3.org/2000/svg"
 width="768.000000pt" height="768.000000pt" viewBox="0 0 768.000000 768.000000"
 preserveAspectRatio="xMidYMid meet">
<metadata>
Created by potrace 1.11, written by Peter Selinger 2001-2013
</metadata>
<g transform="translate(0.000000,768.000000) scale(0.100000,-0.100000)"
fill="#000000" stroke="none">
<path d="M32 5522 l-32 -3 3 -2442 c1 -1343 6 -2458 11 -2477 4 -19 14 -45 22
-57 8 -13 11 -23 8 -23 -4 0 -1 -8 7 -17 8 -10 21 -30 29 -45 17 -35 103 -121
138 -139 15 -8 29 -17 32 -20 3 -3 32 -17 65 -30 l60 -24 3445 -2 c3229 -2
3449 -1 3506 15 33 9 71 24 85 32 13 9 36 21 50 29 68 34 149 135 190 236 l24
60 3 2452 2 2452 -42 1 c-24 0 -50 1 -58 1 -8 0 -58 0 -110 0 -52 0 -139 -1
-193 -1 -54 0 -102 -2 -107 -5 -5 -3 -11 -1 -15 5 -4 6 -11 7 -17 4 -8 -5 -78
-6 -178 -2 -8 0 -46 0 -85 -1 -38 0 -77 0 -85 0 -8 1 -46 1 -85 0 -38 0 -77 0
-85 0 -23 1 -195 0 -280 -2 -41 0 -86 -1 -100 0 -14 0 -56 0 -95 0 -38 0 -79
0 -90 1 -11 1 -26 1 -32 1 -22 -1 -162 0 -180 1 -10 0 -52 0 -93 -1 -41 0 -82
0 -90 0 -8 0 -58 0 -110 0 -52 0 -139 -1 -193 -1 -54 0 -102 -2 -107 -5 -5 -3
-11 -1 -15 5 -4 6 -11 7 -17 4 -8 -5 -78 -6 -178 -2 -8 0 -46 0 -85 -1 -38 0
-77 0 -85 0 -8 1 -46 1 -85 0 -38 0 -77 0 -85 0 -23 1 -195 0 -280 -2 -41 0
-86 -1 -100 0 -14 0 -56 0 -95 0 -38 0 -79 0 -90 1 -11 1 -26 1 -32 1 -22 -1
-162 0 -180 1 -10 0 -52 0 -93 -1 -41 0 -82 0 -90 0 -8 0 -58 0 -110 0 -52 0
-139 -1 -193 -1 -54 0 -102 -2 -107 -5 -5 -3 -11 -1 -15 5 -4 6 -11 7 -17 4
-8 -5 -78 -6 -178 -2 -8 0 -46 0 -85 -1 -38 0 -77 0 -85 0 -8 1 -46 1 -85 0
-38 0 -77 0 -85 0 -8 0 -58 0 -110 0 -52 0 -139 -1 -193 -1 -54 0 -102 -2
-107 -5 -5 -3 -11 -1 -15 5 -4 6 -11 7 -17 4 -8 -5 -78 -6 -178 -2 -8 0 -46 0
-85 -1 -38 -1 -130 -1 -203 -1 -73 0 -137 -2 -142 -5 -5 -3 -11 -1 -15 5 -4 6
-11 7 -17 4 -8 -5 -78 -6 -178 -2 -8 0 -46 0 -85 -1 -38 -1 -130 -1 -203 -1
-73 0 -137 -2 -142 -5 -5 -3 -11 -1 -15 5 -4 6 -11 7 -17 4 -8 -5 -78 -6 -178
-2 -8 0 -46 0 -85 -1 -38 -1 -130 -1 -203 -1 -73 0 -137 -2 -142 -5 -5 -3 -11
-1 -15 5 -4 6 -11 8 -16 4 -5 -3 -33 -5 -62 -5 -151 2 -251 0 -255 -4 -3 -2
-12 -1 -21 3 -9 4 -31 6 -49 4z m3913 -727 c44 -9 91 -45 109 -83 14 -29 16
-107 16 -676 l-1 -643 -27 -41 c-14 -23 -32 -42 -39 -42 -7 0 -13 -4 -13 -10
0 -5 -3 -9 -7 -8 -5 1 -25 -2 -46 -6 -77 -17 -180 -10 -242 16 -37 15 -48 25
-68 65 -15 27 -16 103 -17 664 0 379 4 647 10 667 12 43 53 79 110 95 45 13
159 14 215 2z"/>
</g>
</svg>
