<?xml version="1.0" encoding="utf-8"?>
<!-- Generator: Adobe Illustrator 16.0.0, SVG Export Plug-In . SVG Version: 6.00 Build 0)  -->
<!DOCTYPE svg PUBLIC "-//W3C//DTD SVG 1.1//EN" "http://www.w3.org/Graphics/SVG/1.1/DTD/svg11.dtd">
<svg version="1.1" id="Layer_1" xmlns="http://www.w3.org/2000/svg" xmlns:xlink="http://www.w3.org/1999/xlink" x="0px" y="0px"
	 width="512px" height="512px" viewBox="0 0 512 512" enable-background="new 0 0 512 512" xml:space="preserve">
<g>
	<path style="fill: #FFF;" d="M287.86,155.604v26.038c0,18.019-14.589,32.626-32.625,32.626c-18,0-32.626-14.607-32.626-32.626v-26.038
		c-40.561,13.667-69.909,51.997-69.909,97.123c0,56.539,46.013,102.535,102.535,102.535c56.557,0,102.535-45.996,102.535-102.535
		C357.77,207.601,328.439,169.271,287.86,155.604z"/>
	<path style="fill: #FFF;" d="M256.002,10.276C120.283,10.276,10.278,120.299,10.278,256c0,135.72,110.005,245.724,245.724,245.724
		c135.702,0,245.72-110.004,245.72-245.724C501.722,120.299,391.704,10.276,256.002,10.276z M255.235,404.202
		c-83.509,0-151.475-67.957-151.475-151.476c0-72.313,50.981-132.867,118.849-147.843V82.599c0-18.019,14.625-32.63,32.626-32.63
		c18.037,0,32.625,14.611,32.625,32.63v22.285c67.887,14.976,118.85,75.529,118.85,147.843
		C406.71,336.245,338.762,404.202,255.235,404.202z"/>
</g>
</svg>
