<svg xmlns="http://www.w3.org/2000/svg" xmlns:xlink="http://www.w3.org/1999/xlink" preserveAspectRatio="xMidYMid" width="826" height="826" viewBox="0 0 826 826">
  <defs>
    <style>
      .cls-1 {
        fill: #000;
        fill-rule: evenodd;
      }
    </style>
  </defs>
  <path d="M690.371,491.378 L553.618,571.224 C550.375,573.117 546.714,574.095 543.016,574.095 C541.219,574.095 539.413,573.859 537.650,573.394 C532.250,571.970 527.634,568.452 524.830,563.624 L484.951,494.978 C475.493,507.803 464.538,519.455 452.349,529.690 L452.349,698.469 C452.349,710.078 442.935,719.499 431.319,719.499 L216.753,719.499 C205.137,719.499 195.724,710.078 195.724,698.469 L195.724,529.711 C152.027,493.032 124.198,438.039 124.198,376.664 C124.198,315.286 152.027,260.299 195.724,223.616 L195.724,128.534 C195.724,116.918 205.137,107.501 216.753,107.501 L431.319,107.501 C442.932,107.501 452.349,116.918 452.347,128.534 L452.347,205.460 L483.984,252.185 L564.535,253.315 C571.927,253.416 578.719,257.394 582.427,263.779 L697.954,462.654 C703.777,472.680 700.385,485.529 690.371,491.378 ZM237.787,677.437 L410.284,677.437 L410.284,556.857 C384.160,569.415 354.912,576.475 324.042,576.475 C293.170,576.475 263.911,569.437 237.787,556.884 L237.787,677.437 ZM363.711,149.564 L237.787,149.564 L237.787,196.439 C263.909,183.890 293.170,176.849 324.042,176.849 C347.038,176.849 369.128,180.776 389.705,187.957 L363.711,149.564 ZM409.038,344.104 L445.933,276.699 C416.981,241.451 373.111,218.910 324.042,218.910 C237.041,218.910 166.263,289.679 166.263,376.664 C166.263,463.647 237.039,534.413 324.042,534.413 C382.833,534.413 434.167,502.065 461.299,454.262 L409.310,364.761 C405.605,358.394 405.502,350.558 409.038,344.104 ZM552.042,295.210 L484.281,294.258 L451.633,353.894 L550.610,524.275 L651.044,465.641 L552.042,295.210 ZM265.498,463.051 C261.391,467.151 256.007,469.205 250.625,469.205 C245.240,469.205 239.860,467.151 235.751,463.046 C227.542,454.828 227.544,441.513 235.756,433.302 L301.120,367.956 L301.120,305.150 C301.120,293.537 310.537,284.118 322.155,284.118 C333.768,284.118 343.181,293.537 343.181,305.150 L343.181,376.666 C343.181,382.244 340.972,387.595 337.024,391.541 L265.498,463.051 Z" class="cls-1"/>
</svg>
