<svg id="495e8027-4326-4f80-8a90-1869da30a0c5" data-name="Layer 1" xmlns="http://www.w3.org/2000/svg" viewBox="0 0 372.08 359.16"><defs><style>.\32 8a762c6-6a4b-40d3-82e5-ecfb08fdb302{fill:#fff;fill-rule:evenodd;}</style></defs><title>betalist</title><path class="28a762c6-6a4b-40d3-82e5-ecfb08fdb302" d="M199,93v52c13.29-.08,29.38-1.12,41,1,0.94,1.8,1.38,1.57,2,4h1c1.32,2.19-1.62,8.79-2,9h-2c-1.93,1.71-7.47,1-11,1H199v58h45c2.25,3.86,3.87,3.38,4,10-1.3,1-1.49,2-3,3-2.51,2.54-7.95,2-13,2H202c-3.87,0-10.85.92-13-1-2.73-.74-2.62-1.1-4-3h-1V81l3-2c2.75-2.77,9.52-2,15-2,13.77,0,33.61-2.26,44,2a17.81,17.81,0,0,1,2,9c-1.3,1-1.49,2-3,3-2.54,2.52-7.92,2-13,2H199Z" transform="translate(-78.48 -76.34)"/><path class="28a762c6-6a4b-40d3-82e5-ecfb08fdb302" d="M311,93V230c-3.47,2-4.71,5.55-10,3h-2v-1h-1v-1h-1c-1.57-2.35-1-7.24-1-11V93c-10.11.15-22.89,0.91-30-2a17.81,17.81,0,0,1-2-9c1.3-1,1.49-2,3-3,3.21-3.21,12.77-2,19-2,15.07,0,44.19-2.41,55,2a17.81,17.81,0,0,1,2,9c-1.3,1-1.49,2-3,3C336.55,94.46,318.3,93.1,311,93Z" transform="translate(-78.48 -76.34)"/><path class="28a762c6-6a4b-40d3-82e5-ecfb08fdb302" d="M436,232l-9-32c-3.84-1.41-10.62-1-16-1H380l-1,3h-1l-1,7h-1v4h-1v4h-1l-1,7c-0.85,2.48-2.37,5.16-3,8h-2l-1,2c-2.84,1.16-6.11-.64-8-1-0.94-1.8-1.38-1.57-2-4h-1l1-9h1l1-7h1v-3h1l2-11h1l1-8c4.87-13.36,8.14-29.57,13-43l1-8h1l1-7h1v-3h1l2-11h1l2-11h1v-4h1v-3h1l2-11h1l1-8h1l1-4c5.85-1.36,6-2.48,12,0,2.87,7.7,5.27,17.4,8,25l1,8c9.51,26.43,14.56,56.55,24,83v4h1v3h1v4h1v4h1v3h1v4h1v4h1v3h1c2.6,8.54-4.29,10.86-11,11C437.87,232.28,438.37,232.64,436,232ZM404,115l6,25h1v4h1v4h1l1,7h1v3h1l1,8h1l4,18H384l6-25h1v-4c1.55-4.53,3.47-10.55,5-15v-4h1l5-21h2Z" transform="translate(-78.48 -76.34)"/><path class="28a762c6-6a4b-40d3-82e5-ecfb08fdb302" d="M80,231c-2.68-15.05-1-35.21-1-52V81a21.9,21.9,0,0,0,5-4c12.68-.22,35.94-1.66,45,2v1l4,1v1h2l1,2h2l2,3h2l2,2v2l3,2v2h1l2,6h1v3h1v5c5,17.19-3,37.3-13,43,0.84,1.13-.13.15,1,1l3,4h1v2l3,2v2l2,1c1.39,2.27,1,5.26,2,8h1l1,17c0,11.84-1.29,20.94-6,28l-3,2v2h-1l-2,3h-2l-2,3-6,2v1h-2v1h-3v1l-21,1H84v-1ZM128,96l3,4,3,2v2l2,1,1,7c4.22,13-3.18,28.68-13,31-3.56,3.38-22.58,2.16-30,2V93C105.34,92.77,121.05,91.37,128,96Zm10,97-1,10c-2,1.75-.83,2.2-2,4l-2,1v2l-3,2v1h-2l-1,2h-2v1l-7,1v1c-7.49.05-18.22,1.14-24-1V179c0-6.18-.68-14.42,1-19C126.3,159.58,138.4,161,138,193Z" transform="translate(-78.48 -76.34)"/><path class="28a762c6-6a4b-40d3-82e5-ecfb08fdb302" d="M94,418c13.89-.14,36.78-2.15,47,2,2.19,4.88,3.46,8.18-1,12v1c-2.51,1.67-8,1-12,1H100c-7.82,0-18.48,1.18-21-4V281c3.47-2,4.71-5.55,10-3h2v1h1v1h1c1.57,2.35,1,7.24,1,11V418Z" transform="translate(-78.48 -76.34)"/><path class="28a762c6-6a4b-40d3-82e5-ecfb08fdb302" d="M192,277a29.37,29.37,0,0,1,7,1c0.59,1.09,1.75,1.59,2,2v2h1V393c0,12.7,1,28-1,39-1.8.94-1.57,1.38-4,2v1c-3.47,1.85-7-2-8-3-3.72-3.86-2-23.16-2-31V281A21.9,21.9,0,0,0,192,277Z" transform="translate(-78.48 -76.34)"/><path class="28a762c6-6a4b-40d3-82e5-ecfb08fdb302" d="M311,298c-3.15-.86-4.56-2.78-7-4h-2v-1c-4.1-1.46-14.47.47-16,2-10.69,2.65-16.41,21-9,32l12,11v1l2,1v2l7,6,16,17,7,6v2l3,2v2h1l2,6h1v4h1v6h1v8h-1v5c-5.93,17.47-14.84,23.77-33,29-4.83,1.39-12.23-1-15-2h-3v-1h-2v-1l-6-2-1-2h-2l-4-5-2-1v-2l-2-1v-2h-1v-2h-1c-1-3,1.25-6.17,2-8a17.81,17.81,0,0,1,9-2c0.93,1.22,2.3,1.1,3,2v2l2,1v2c2.51,3.51,15.41,10.81,24,8v-1h3v-1h2v-1h2v-1a8.44,8.44,0,0,1,4-2c0.73-2.62,1.58-3.19,3-5h1v-2h1l1-10h1c-0.17-12.23-12.5-20.5-19-27l-18-20c-4.82-4.81-11.32-9.17-15-15v-2h-1v-2h-1v-3h-1v-3h-1v-6h-1l2-16h1v-3h1v-2l2-1v-2l2-1v-2l6-5,1-2h2l1-2,4-1v-1l6-1v-1h5v-1l14,1v1l6,1v1l4,1,1,2h2l1,2,6,5v2h1c1,1.23.74,1.93,2,3v8c-4.31,2.37-3.74,3-11,3C315.2,303.85,312,301.88,311,298Z" transform="translate(-78.48 -76.34)"/><path class="28a762c6-6a4b-40d3-82e5-ecfb08fdb302" d="M440,292c-8.32,1.49-20.1,1-30,1V398c0,9,2.06,31.6-3,35v1l-7,1c-1.17-1.36-1.82-1.53-4-2-3-14.11-2-34.75-2-52V293H366c-2.37-4.07-3.07-3.76-3-11a21.9,21.9,0,0,0,5-4h53c7.1,0,16.1-1.35,19,3h1l1,6h-1Z" transform="translate(-78.48 -76.34)"/></svg>