<?xml version="1.0" encoding="utf-8"?>
<!-- Generator: Adobe Illustrator 19.2.1, SVG Export Plug-In . SVG Version: 6.00 Build 0)  -->
<svg version="1.1" id="_x34_95e8027-4326-4f80-8a90-1869da30a0c5"
	 xmlns="http://www.w3.org/2000/svg" xmlns:xlink="http://www.w3.org/1999/xlink" x="0px" y="0px" viewBox="0 0 372.1 359.2"
	 style="enable-background:new 0 0 372.1 359.2;" xml:space="preserve">
<title>betalist</title>
<path d="M120.5,16.7v52c13.3-0.1,29.4-1.1,41,1c0.9,1.8,1.4,1.6,2,4h1c1.3,2.2-1.6,8.8-2,9h-2c-1.9,1.7-7.5,1-11,1h-29v58h45
	c2.2,3.9,3.9,3.4,4,10c-1.3,1-1.5,2-3,3c-2.5,2.5-7.9,2-13,2h-30c-3.9,0-10.9,0.9-13-1c-2.7-0.7-2.6-1.1-4-3h-1V4.7l3-2
	c2.8-2.8,9.5-2,15-2c13.8,0,33.6-2.3,44,2c1.4,2.8,2.1,5.9,2,9c-1.3,1-1.5,2-3,3c-2.5,2.5-7.9,2-13,2H120.5z"/>
<path d="M232.5,16.7v137c-3.5,2-4.7,5.6-10,3h-2v-1h-1v-1h-1c-1.6-2.4-1-7.2-1-11v-127c-10.1,0.2-22.9,0.9-30-2
	c-1.4-2.8-2.1-5.9-2-9c1.3-1,1.5-2,3-3c3.2-3.2,12.8-2,19-2c15.1,0,44.2-2.4,55,2c1.4,2.8,2.1,5.9,2,9c-1.3,1-1.5,2-3,3
	C258.1,18.1,239.8,16.8,232.5,16.7z"/>
<path d="M371.5,146.7h-1v-3h-1v-4h-1v-4h-1v-3h-1v-4h-1v-4h-1v-3h-1v-4c-9.4-26.5-14.5-56.6-24-83l-1-8c-2.7-7.6-5.1-17.3-8-25
	c-6-2.5-6.2-1.4-12,0l-1,4h-1l-1,8h-1l-2,11h-1v3h-1v4h-1l-2,11h-1l-2,11h-1v3h-1l-1,7h-1l-1,8c-4.9,13.4-8.1,29.6-13,43l-1,8h-1
	l-2,11h-1v3h-1l-1,7h-1l-1,9h1c0.6,2.4,1.1,2.2,2,4c1.9,0.4,5.2,2.2,8,1l1-2h2c0.6-2.8,2.1-5.5,3-8l1-7h1v-4h1v-4h1l1-7h1l1-3h31
	c5.4,0,12.2-0.4,16,1l9,32c2.4,0.6,1.9,0.3,3,2C367.2,157.5,374.1,155.2,371.5,146.7z M305.5,107.7l6-25h1v-4c1.5-4.5,3.5-10.5,5-15
	v-4h1l5-21h2l6,25h1v4h1v4h1l1,7h1v3h1l1,8h1l4,18H305.5z"/>
<path d="M72.5,95.7c-1-2.7-0.6-5.7-2-8l-2-1v-2l-3-2v-2h-1l-3-4c-1.1-0.9-0.2,0.1-1-1c10-5.7,18-25.8,13-43v-5h-1v-3h-1l-2-6h-1v-2
	l-3-2v-2l-2-2h-2l-2-3h-2l-1-2h-2v-1l-4-1v-1c-9.1-3.7-32.3-2.2-45-2c-1.5,1.6-3.1,2.9-5,4v98c0,16.8-1.7,37,1,52l4,1v1h21l21-1v-1
	h3v-1h2v-1l6-2l2-3h2l2-3h1v-2l3-2c4.7-7.1,6-16.2,6-28l-1-17H72.5z M59.5,116.7l-1,10c-2,1.8-0.8,2.2-2,4l-2,1v2l-3,2v1h-2l-1,2h-2
	v1l-7,1v1c-7.5,0-18.2,1.1-24-1v-38c0-6.2-0.7-14.4,1-19C47.8,83.2,59.9,84.7,59.5,116.7z M45.5,66.7c-3.6,3.4-22.6,2.2-30,2v-52
	c11.3-0.2,27-1.6,34,3l3,4l3,2v2l2,1l1,7C62.7,48.7,55.3,64.3,45.5,66.7z"/>
<path d="M15.5,341.7c13.9-0.1,36.8-2.1,47,2c2.2,4.9,3.5,8.2-1,12v1c-2.5,1.7-8,1-12,1h-28c-7.8,0-18.5,1.2-21-4v-149
	c3.5-2,4.7-5.5,10-3h2v1h1v1h1c1.6,2.4,1,7.2,1,11V341.7z"/>
<path d="M113.5,200.7c2.4,0.1,4.7,0.4,7,1c0.6,1.1,1.8,1.6,2,2v2h1v111c0,12.7,1,28-1,39c-1.8,0.9-1.6,1.4-4,2v1c-3.5,1.9-7-2-8-3
	c-3.7-3.9-2-23.2-2-31v-120C110.4,203.6,112.1,202.2,113.5,200.7z"/>
<path d="M232.5,221.7c-3.1-0.9-4.6-2.8-7-4h-2v-1c-4.1-1.5-14.5,0.5-16,2c-10.7,2.6-16.4,21-9,32l12,11v1l2,1v2l7,6l16,17l7,6v2l3,2
	v2h1l2,6h1v4h1v6h1v8h-1v5c-5.9,17.5-14.8,23.8-33,29c-4.8,1.4-12.2-1-15-2h-3v-1h-2v-1l-6-2l-1-2h-2l-4-5l-2-1v-2l-2-1v-2h-1v-2h-1
	c-1-3,1.2-6.2,2-8c2.8-1.4,5.9-2.1,9-2c0.9,1.2,2.3,1.1,3,2v2l2,1v2c2.5,3.5,15.4,10.8,24,8v-1h3v-1h2v-1h2v-1c1.1-1,2.5-1.7,4-2
	c0.7-2.6,1.6-3.2,3-5h1v-2h1l1-10h1c-0.2-12.2-12.5-20.5-19-27l-18-20c-4.8-4.8-11.3-9.2-15-15v-2h-1v-2h-1v-3h-1v-3h-1v-6h-1l2-16
	h1v-3h1v-2l2-1v-2l2-1v-2l6-5l1-2h2l1-2l4-1v-1l6-1v-1h5v-1l14,1v1l6,1v1l4,1l1,2h2l1,2l6,5v2h1c1,1.2,0.7,1.9,2,3v8
	c-4.3,2.4-3.7,3-11,3C236.7,227.5,233.5,225.5,232.5,221.7z"/>
<path d="M361.5,215.7c-8.3,1.5-20.1,1-30,1v105c0,9,2.1,31.6-3,35v1l-7,1c-1.2-1.4-1.8-1.5-4-2c-3-14.1-2-34.8-2-52v-88h-28
	c-2.4-4.1-3.1-3.8-3-11c1.9-1.1,3.5-2.4,5-4h53c7.1,0,16.1-1.4,19,3h1l1,6h-1L361.5,215.7z"/>
</svg>
