<?xml version="1.0" encoding="utf-8"?>
<!-- Generator: Adobe Illustrator 17.0.1, SVG Export Plug-In . SVG Version: 6.00 Build 0)  -->
<!DOCTYPE svg PUBLIC "-//W3C//DTD SVG 1.1//EN" "http://www.w3.org/Graphics/SVG/1.1/DTD/svg11.dtd">
<svg version="1.1" id="Layer_2" xmlns="http://www.w3.org/2000/svg" xmlns:xlink="http://www.w3.org/1999/xlink" x="0px" y="0px"
	 width="44.7px" height="61.088px" viewBox="0 0 44.7 61.088" enable-background="new 0 0 44.7 61.088" xml:space="preserve">
<g>
	<path fill="#F9ED32" d="M29.017,49.164c3.646-3.729,5.946-7.085,6.899-10.067c1.118-3.522,0.248-6.713-2.61-9.571
		c-1.616-1.616-3.397-2.651-5.346-3.108c-5.323-1.222-11.041,1.223-17.152,7.334c-3.128,3.129-5.169,6.412-6.121,9.851
		c-1.161,4.103-0.295,7.598,2.595,10.487c2.891,2.891,6.562,3.601,11.016,2.129c3.667-1.222,7.126-3.46,10.378-6.712L29.017,49.164z
		"/>
	<g>
		<path fill="#333333" d="M38.798,2.606c0.611,1.254,1.104,2.523,1.477,3.807c3.335,11.414,4.785,20.405,4.351,26.972
			c-0.497,7.583-3.47,14.099-8.918,19.547c-4.371,4.371-9.432,6.975-15.18,7.814C14.778,61.585,9.898,60,5.89,55.992
			c-4.009-4.009-5.972-8.759-5.888-14.247c0.082-5.49,2.133-10.244,6.152-14.264c4.019-4.019,8.742-6.09,14.17-6.215
			c2.527-0.041,5.022,0.414,7.489,1.368c2.464,0.952,4.438,2.169,5.92,3.65s2.393,2.621,2.733,3.417
			c0.342,0.799,0.569,1.357,0.683,1.678c0.115,0.323,0.255,0.565,0.42,0.73c2.196-2.318,2.859-7.478,1.989-15.475
			c-0.27-2.423-0.621-4.764-1.057-7.022c-0.124-0.703-0.574-2.366-1.352-4.987c-0.776-2.62-1.01-4.086-0.699-4.396
			c0.311-0.311,0.627-0.305,0.948,0.016C37.72,0.566,38.187,1.353,38.798,2.606z M29.056,49.203
			c3.646-3.729,5.945-7.086,6.898-10.068c1.118-3.522,0.248-6.713-2.61-9.571c-1.616-1.616-3.397-2.652-5.344-3.107
			c-5.324-1.223-11.043,1.223-17.153,7.333c-3.129,3.129-5.17,6.412-6.122,9.851c-1.16,4.102-0.295,7.598,2.595,10.487
			c2.891,2.891,6.562,3.601,11.016,2.129c3.667-1.222,7.127-3.459,10.379-6.711L29.056,49.203z"/>
	</g>
</g>
<g>
</g>
<g>
</g>
<g>
</g>
<g>
</g>
<g>
</g>
<g>
</g>
</svg>
