<svg id="540a2e9f-cc96-4a8b-997b-961003f3f995" data-name="Layer 1" xmlns="http://www.w3.org/2000/svg" viewBox="0 0 606.53 641.9"><defs><style>.a8bfc5ed-fab8-4fb8-b8eb-41c07598f669{fill:none;}.a8bfc5ed-fab8-4fb8-b8eb-41c07598f669,.c2a0268d-95bb-40bb-bbeb-30a7db0b0cf5{stroke:#fff;stroke-miterlimit:10;stroke-width:30px;}.c2a0268d-95bb-40bb-bbeb-30a7db0b0cf5,.d82707dd-e8d9-4ae6-8e7f-972def03b472{fill:#fff;isolation:isolate;}.d82707dd-e8d9-4ae6-8e7f-972def03b472{opacity:0.5;}.c2a0268d-95bb-40bb-bbeb-30a7db0b0cf5{opacity:0.2;}</style></defs><title>logo</title><g id="d43e1c40-6c76-459a-9cfa-f49fbf4ab043" data-name="Layer 1"><path class="a8bfc5ed-fab8-4fb8-b8eb-41c07598f669" d="M690.4,491.4L553.6,571.2a20.86,20.86,0,0,1-10.6,2.9,20,20,0,0,1-5.4-.7,20.69,20.69,0,0,1-12.8-9.8L485,495a202.31,202.31,0,0,1-32.6,34.7V698.5a21,21,0,0,1-21,21H216.8a21,21,0,0,1-21-21V529.7a199.45,199.45,0,0,1,0-306V128.6a21,21,0,0,1,21-21H431.4a21,21,0,0,1,21,21v76.9L484,252.2l80.6,1.1a21,21,0,0,1,17.9,10.5L698,462.7A21.06,21.06,0,0,1,690.4,491.4Z" transform="translate(-109.3 -92.6)"/><path class="d82707dd-e8d9-4ae6-8e7f-972def03b472" d="M237.8,677.4H410.3V556.9a199.57,199.57,0,0,1-172.5,0V677.4h0Z" transform="translate(-109.3 -92.6)"/><path class="d82707dd-e8d9-4ae6-8e7f-972def03b472" d="M363.7,149.6H237.8v46.9a199.87,199.87,0,0,1,152-8.5Z" transform="translate(-109.3 -92.6)"/><path class="c2a0268d-95bb-40bb-bbeb-30a7db0b0cf5" d="M409,344.1l36.9-67.4A157.64,157.64,0,0,0,324,218.9c-87,0-157.8,70.8-157.8,157.8S237,534.4,324,534.4a157.8,157.8,0,0,0,137.3-80.2l-52-89.5A21,21,0,0,1,409,344.1Z" transform="translate(-109.3 -92.6)"/><path class="a8bfc5ed-fab8-4fb8-b8eb-41c07598f669" d="M409,344.1l36.9-67.4A157.64,157.64,0,0,0,324,218.9c-87,0-157.8,70.8-157.8,157.8S237,534.4,324,534.4a157.8,157.8,0,0,0,137.3-80.2l-52-89.5A21,21,0,0,1,409,344.1Z" transform="translate(-109.3 -92.6)"/><polyline class="a8bfc5ed-fab8-4fb8-b8eb-41c07598f669" points="133.3 373.5 217 289.9 217 194.6"/></g></svg>