<?xml version="1.0" encoding="utf-8"?>
<!-- Generator: Adobe Illustrator 17.1.0, SVG Export Plug-In . SVG Version: 6.00 Build 0)  -->
<!DOCTYPE svg PUBLIC "-//W3C//DTD SVG 1.1//EN" "http://www.w3.org/Graphics/SVG/1.1/DTD/svg11.dtd">
 <?xml-stylesheet type="text/css" href="/assets/css/main.min.css"?>
<svg version="1.1" id="Fixed" xmlns="http://www.w3.org/2000/svg" xmlns:xlink="http://www.w3.org/1999/xlink" x="0px" y="0px"
	 viewBox="0 0 189 189" enable-background="new 0 0 189 189" xml:space="preserve">
<path fill="#333333" d="M94.5,0C42.4,0,0,42.4,0,94.5C0,146.6,42.4,189,94.5,189c52.1,0,94.5-42.4,94.5-94.5
	C189,42.4,146.6,0,94.5,0z M9.5,94.5c0-12.3,2.6-24,7.4-34.6l40.5,111C29.1,157.2,9.5,128.1,9.5,94.5z M94.5,179.5
	c-8.3,0-16.4-1.2-24-3.5L96,101.9l26.1,71.5c0.2,0.4,0.4,0.8,0.6,1.2C113.9,177.8,104.4,179.5,94.5,179.5z M106.2,54.7
	c5.1-0.3,9.7-0.8,9.7-0.8c4.6-0.5,4-7.3-0.5-7c0,0-13.8,1.1-22.6,1.1c-8.3,0-22.4-1.1-22.4-1.1c-4.6-0.3-5.1,6.7-0.5,7
	c0,0,4.3,0.5,8.9,0.8L92,90.9l-18.6,55.8l-30.9-92c5.1-0.3,9.7-0.8,9.7-0.8c4.6-0.5,4-7.3-0.5-7c0,0-13.8,1.1-22.6,1.1
	c-1.6,0-3.5,0-5.5-0.1c15.2-23.1,41.3-38.3,71-38.3c22.1,0,42.3,8.5,57.4,22.3c-0.4,0-0.7-0.1-1.1-0.1c-8.3,0-14.3,7.3-14.3,15.1
	c0,7,4,12.9,8.3,19.9c3.2,5.7,7,12.9,7,23.4c0,7.3-2.8,15.7-6.5,27.5l-8.5,28.3L106.2,54.7z M169.1,53.7c6.6,12.1,10.4,26,10.4,40.8
	c0,31.3-17,58.7-42.2,73.4l26-75c4.8-12.1,6.5-21.8,6.5-30.4C169.6,59.3,169.4,56.4,169.1,53.7z"/>
</svg>
