<?xml version="1.0" standalone="no"?>
<!DOCTYPE svg PUBLIC "-//W3C//DTD SVG 20010904//EN"
 "http://www.w3.org/TR/2001/REC-SVG-20010904/DTD/svg10.dtd">
<svg version="1.0" xmlns="http://www.w3.org/2000/svg"
 width="700.000000pt" height="700.000000pt" viewBox="0 0 700.000000 700.000000"
 preserveAspectRatio="xMidYMid meet">
<metadata>
Created by potrace 1.11, written by Peter Selinger 2001-2013
</metadata>
<g transform="translate(0.000000,700.000000) scale(0.100000,-0.100000)"
fill="#000000" stroke="none">
<path d="M1787 6081 c-39 -9 -91 -53 -110 -94 -15 -31 -17 -86 -17 -457 l0
-423 -88 -86 c-108 -106 -135 -137 -210 -243 -130 -183 -241 -440 -277 -638
-36 -204 -40 -461 -8 -615 2 -11 8 -45 14 -75 14 -73 64 -229 99 -310 89 -204
230 -403 407 -572 l63 -61 -1 -733 c0 -704 1 -735 20 -771 19 -39 37 -56 81
-83 22 -13 149 -15 971 -16 753 -1 953 1 983 11 49 17 92 59 108 104 8 27 12
225 12 762 l1 727 95 94 c52 52 113 117 134 146 22 28 43 49 47 47 6 -4 79
-126 148 -248 130 -228 208 -351 237 -373 71 -55 146 -48 266 25 35 21 281
165 548 321 267 155 506 296 532 312 65 41 93 88 93 158 0 53 -6 65 -195 390
-107 184 -215 371 -240 415 -26 44 -113 195 -195 335 -82 140 -198 341 -258
445 -60 105 -123 205 -140 222 -54 57 -57 58 -628 63 l-177 2 -133 196 -134
197 -1 346 c-1 389 -1 393 -77 453 l-39 31 -951 1 c-524 1 -964 -1 -980 -5z
m968 -351 l330 -1 108 -159 c59 -88 106 -160 103 -160 -2 0 -32 9 -67 19 -264
81 -619 91 -879 25 -85 -21 -200 -60 -268 -90 -30 -13 -57 -24 -61 -24 -3 0
-6 88 -6 195 0 187 0 194 20 197 11 2 103 2 205 1 102 -1 334 -2 515 -3z m124
-595 c46 -3 86 -7 90 -9 3 -3 26 -7 50 -11 69 -10 218 -62 317 -111 127 -62
248 -149 353 -255 l90 -90 -38 -72 c-21 -40 -91 -168 -155 -285 -135 -246
-138 -253 -137 -309 0 -54 7 -66 255 -488 39 -66 73 -124 75 -130 2 -5 30 -53
62 -106 31 -52 59 -102 61 -111 10 -49 -217 -317 -357 -420 -344 -254 -788
-331 -1190 -208 -465 143 -848 573 -922 1035 -3 17 -8 49 -12 71 -10 55 -11
281 -1 336 4 24 10 61 13 83 20 145 120 377 227 527 231 325 602 533 985 555
50 3 91 7 93 8 2 2 15 2 30 0 15 -2 65 -6 111 -10z m1688 -635 l113 0 20 -37
c36 -66 138 -242 642 -1107 92 -159 168 -295 168 -303 0 -7 -4 -13 -9 -13 -5
0 -71 -37 -147 -81 -77 -45 -152 -90 -169 -99 -16 -10 -109 -64 -205 -120 -96
-56 -191 -112 -210 -122 -19 -11 -50 -29 -68 -40 -18 -11 -35 -19 -36 -17 -7
7 -196 332 -196 336 0 2 -11 20 -24 41 -24 39 -231 395 -274 472 -14 25 -35
61 -47 80 -12 19 -33 55 -47 80 -14 25 -76 132 -138 238 l-112 193 132 242
c73 133 136 247 141 252 5 7 70 10 181 8 95 -1 224 -2 285 -3z m-2409 -2279
c190 -70 380 -104 582 -105 261 0 464 45 726 160 7 3 10 -151 10 -506 l1 -510
-731 2 -731 3 -1 500 c0 275 1 503 3 507 2 5 17 1 34 -7 16 -9 64 -28 107 -44z"/>
<path d="M2655 4575 c-56 -30 -89 -73 -99 -127 -3 -13 -5 -145 -5 -295 l-1
-271 -294 -295 c-308 -310 -300 -300 -311 -392 -2 -21 24 -84 47 -110 49 -57
139 -77 205 -44 54 26 678 654 697 700 13 31 15 95 15 370 0 376 -2 390 -74
445 -46 35 -133 44 -180 19z"/>
</g>
</svg>
