<?xml version="1.0" standalone="no"?>
<!DOCTYPE svg PUBLIC "-//W3C//DTD SVG 20010904//EN"
 "http://www.w3.org/TR/2001/REC-SVG-20010904/DTD/svg10.dtd">
<svg version="1.0" xmlns="http://www.w3.org/2000/svg"
 width="700.000000pt" height="700.000000pt" viewBox="0 0 700.000000 700.000000"
 preserveAspectRatio="xMidYMid meet">
<metadata>
Created by potrace 1.11, written by Peter Selinger 2001-2013
</metadata>
<g transform="translate(0.000000,700.000000) scale(0.100000,-0.100000)"
fill="#000000" stroke="none">
<path d="M0 3500 l0 -3500 3500 0 3500 0 0 3500 0 3500 -3500 0 -3500 0 0
-3500z m3781 2689 c72 -34 134 -99 159 -166 19 -50 20 -79 20 -388 l0 -335
105 -153 104 -154 332 -7 c359 -8 388 -12 461 -66 21 -15 46 -38 57 -51 24
-32 954 -1632 1003 -1726 47 -92 54 -142 34 -221 -18 -73 -53 -131 -98 -166
-55 -42 -1200 -708 -1251 -728 -58 -22 -148 -23 -211 -2 -85 29 -133 87 -274
330 l-128 221 -67 -63 -67 -64 0 -715 c0 -689 -1 -716 -20 -768 -25 -66 -88
-132 -160 -166 l-55 -26 -980 0 -980 0 -56 28 c-72 35 -131 98 -158 171 -21
56 -21 66 -21 767 l0 711 -106 111 c-233 247 -389 546 -462 886 -24 117 -26
144 -26 361 0 218 2 244 27 362 40 190 117 390 209 548 76 129 228 323 317
403 l41 37 0 400 c0 383 1 402 21 456 36 96 119 170 216 193 21 5 460 8 998 8
l960 -2 56 -26z"/>
<path d="M1806 5944 c-14 -14 -16 -68 -16 -453 l0 -437 -113 -109 c-294 -287
-453 -616 -489 -1010 -9 -104 -9 -161 0 -262 36 -387 186 -699 474 -986 l128
-128 0 -748 c0 -712 1 -749 18 -764 17 -16 97 -17 938 -17 720 0 924 3 937 13
16 11 18 71 24 771 l6 759 46 40 c86 77 164 162 259 282 52 66 98 124 102 128
4 4 105 -162 225 -369 216 -371 237 -400 276 -385 8 3 277 159 598 345 441
258 583 345 587 362 3 12 -1 35 -9 51 -41 79 -970 1670 -983 1683 -12 13 -75
16 -392 20 -207 3 -382 8 -388 12 -5 4 -81 112 -168 241 l-158 233 -5 360 c-5
311 -7 361 -21 372 -12 9 -215 12 -938 12 -825 0 -924 -2 -938 -16z m1388
-376 c67 -99 102 -158 90 -154 -51 20 -211 56 -314 71 -151 23 -388 16 -545
-15 -114 -22 -292 -78 -357 -111 -20 -10 -40 -19 -43 -19 -3 0 -5 88 -5 195
l0 195 533 0 532 -1 109 -161z m-198 -318 c323 -59 569 -192 812 -439 67 -69
122 -130 122 -136 0 -6 -70 -139 -156 -295 -200 -365 -205 -375 -197 -397 4
-10 114 -202 244 -427 l238 -408 -51 -82 c-76 -121 -123 -182 -207 -270 -199
-206 -440 -345 -715 -412 -262 -63 -553 -50 -811 38 -510 174 -886 619 -974
1153 -39 235 -13 508 70 736 179 490 621 856 1139 944 123 21 358 18 486 -5z
m-880 -3016 c96 -39 267 -86 389 -106 118 -18 398 -15 520 6 124 22 239 55
352 101 48 19 88 33 90 32 1 -2 6 -229 9 -505 l7 -502 -731 0 -732 0 0 505 c0
278 2 505 5 505 3 0 44 -16 91 -36z"/>
<path d="M2534 4995 c-574 -104 -994 -607 -994 -1190 0 -422 221 -811 586
-1032 343 -208 799 -226 1159 -46 149 75 338 233 434 366 l42 57 -206 354
c-113 195 -212 371 -221 392 -22 52 -20 159 4 215 11 24 79 152 151 284 l131
240 -47 47 c-148 150 -391 272 -623 313 -103 18 -317 18 -416 0z m356 -858 l0
-432 -373 -373 -372 -372 -90 90 -90 90 338 338 337 337 0 378 0 377 125 0
125 0 0 -433z"/>
</g>
</svg>
